<svg width="200" height="200" viewBox="0 0 200 200" fill="none" xmlns="http://www.w3.org/2000/svg">
<circle cx="100" cy="100" r="100" fill="#316CFF"/>
<path fill-rule="evenodd" clip-rule="evenodd" d="M118.361 61.5606C119.671 60.2044 121.237 59.1226 122.97 58.3784C124.702 57.6342 126.566 57.2425 128.451 57.2261C130.337 57.2097 132.206 57.569 133.952 58.283C135.697 58.9969 137.282 60.0513 138.615 61.3846C139.949 62.7179 141.003 64.3034 141.717 66.0485C142.431 67.7936 142.79 69.6635 142.774 71.5489C142.758 73.4344 142.366 75.2977 141.622 77.0302C140.877 78.7626 139.796 80.3295 138.439 81.6394L117.139 102.939C114.476 105.602 110.865 107.097 107.1 107.097C103.335 107.097 99.7235 105.602 97.0606 102.939C95.7215 101.646 93.928 100.93 92.0664 100.947C90.2049 100.963 88.4241 101.71 87.1077 103.026C85.7913 104.342 85.0446 106.123 85.0284 107.985C85.0122 109.846 85.7279 111.64 87.0212 112.979C92.347 118.303 99.5693 121.294 107.1 121.294C114.631 121.294 121.853 118.303 127.179 112.979L148.479 91.6788C153.652 86.3225 156.515 79.1486 156.45 71.7022C156.385 64.2558 153.398 57.1328 148.133 51.8672C142.867 46.6016 135.744 43.6148 128.298 43.5501C120.851 43.4854 113.677 46.3479 108.321 51.5212L97.6712 62.1712C96.9931 62.8262 96.4522 63.6096 96.0801 64.4759C95.708 65.3421 95.5121 66.2737 95.5039 67.2165C95.4957 68.1592 95.6754 69.0941 96.0324 69.9667C96.3894 70.8393 96.9166 71.632 97.5832 72.2986C98.2498 72.9653 99.0426 73.4925 99.9151 73.8495C100.788 74.2065 101.723 74.3861 102.665 74.3779C103.608 74.3697 104.54 74.1739 105.406 73.8017C106.272 73.4296 107.056 72.8888 107.711 72.2106L118.361 61.5606V61.5606ZM82.8606 97.0606C85.5235 94.3985 89.1347 92.9031 92.9 92.9031C96.6653 92.9031 100.276 94.3985 102.939 97.0606C103.594 97.7388 104.378 98.2796 105.244 98.6517C106.11 99.0239 107.042 99.2197 107.985 99.2279C108.927 99.2361 109.862 99.0565 110.735 98.6995C111.607 98.3425 112.4 97.8153 113.067 97.1486C113.733 96.482 114.261 95.6893 114.618 94.8167C114.975 93.9441 115.154 93.0092 115.146 92.0665C115.138 91.1237 114.942 90.1921 114.57 89.3259C114.198 88.4596 113.657 87.6762 112.979 87.0212C107.653 81.6971 100.431 78.7061 92.9 78.7061C85.3693 78.7061 78.147 81.6971 72.8212 87.0212L51.5212 108.321C48.8087 110.941 46.6451 114.075 45.1567 117.54C43.6683 121.005 42.8849 124.731 42.8521 128.502C42.8193 132.273 43.5379 136.013 44.9659 139.503C46.3938 142.993 48.5026 146.164 51.1692 148.831C53.8357 151.497 57.0066 153.606 60.4969 155.034C63.9872 156.462 67.7269 157.181 71.4978 157.148C75.2687 157.115 78.9954 156.332 82.4603 154.843C85.9252 153.355 89.059 151.191 91.6788 148.479L102.329 137.829C103.007 137.174 103.548 136.39 103.92 135.524C104.292 134.658 104.488 133.726 104.496 132.784C104.504 131.841 104.325 130.906 103.968 130.033C103.611 129.161 103.083 128.368 102.417 127.701C101.75 127.035 100.957 126.508 100.085 126.151C99.2123 125.794 98.2774 125.614 97.3346 125.622C96.3919 125.63 95.4603 125.826 94.594 126.198C93.7278 126.57 92.9443 127.111 92.2894 127.789L81.6394 138.439C80.3295 139.796 78.7626 140.877 77.0301 141.622C75.2977 142.366 73.4344 142.758 71.5489 142.774C69.6634 142.79 67.7936 142.431 66.0485 141.717C64.3033 141.003 62.7179 139.949 61.3846 138.615C60.0513 137.282 58.9969 135.697 58.2829 133.952C57.5689 132.206 57.2097 130.337 57.226 128.451C57.2424 126.566 57.6342 124.702 58.3784 122.97C59.1226 121.237 60.2044 119.671 61.5606 118.361L82.8606 97.0606Z" fill="white"/>
</svg>
