<svg width="1080" height="1080" viewBox="0 0 1080 1080" fill="none" xmlns="http://www.w3.org/2000/svg">
<rect width="1080" height="1080" rx="540" fill="#CAF90F"/>
<path d="M665.928 532C698.461 538.933 724.595 555.2 744.328 580.8C764.061 605.867 773.928 634.667 773.928 667.2C773.928 714.133 757.395 751.467 724.328 779.2C691.795 806.4 646.195 820 587.528 820H325.928V258.4H578.728C635.795 258.4 680.328 271.467 712.328 297.6C744.861 323.733 761.128 359.2 761.128 404C761.128 437.067 752.328 464.533 734.728 486.4C717.661 508.267 694.728 523.467 665.928 532ZM462.728 485.6H552.328C574.728 485.6 591.795 480.8 603.528 471.2C615.795 461.067 621.928 446.4 621.928 427.2C621.928 408 615.795 393.333 603.528 383.2C591.795 373.067 574.728 368 552.328 368H462.728V485.6ZM563.528 709.6C586.461 709.6 604.061 704.533 616.328 694.4C629.128 683.733 635.528 668.533 635.528 648.8C635.528 629.067 628.861 613.6 615.528 602.4C602.728 591.2 584.861 585.6 561.928 585.6H462.728V709.6H563.528Z" fill="black"/>
</svg>
